<svg width="273" height="270" viewBox="0 0 273 270" fill="none" xmlns="http://www.w3.org/2000/svg">
<g clip-path="url(#clip0_2_334)">
<path d="M34.096 270.004C33.4729 269.093 33.4463 268.055 33.5671 267.03C33.7689 265.316 33.3285 263.818 32.3318 262.428C31.6078 261.419 30.9521 260.359 30.2878 259.308C28.6549 256.725 28.1701 253.979 28.8277 250.95C29.8732 246.133 31.339 241.438 32.6973 236.711C33.5908 233.602 33.7394 230.436 33.8556 226.921C33.0269 227.723 32.6964 228.455 32.3354 229.141C30.68 232.288 29.0263 235.436 27.4356 238.616C26.3771 240.732 25.2658 242.805 23.7365 244.623C22.316 246.311 22.1755 248.048 23.0569 250.104C24.1266 252.599 24.5877 255.256 24.0704 258.002C23.8628 259.103 23.2161 259.947 22.5504 260.791C20.8681 262.924 18.6211 264.487 16.8083 266.488C16.624 266.692 16.3716 266.759 16.1091 266.628C15.8043 266.477 15.9146 266.247 15.9486 265.979C16.0635 265.071 16.4095 264.256 16.789 263.438C18.8663 258.963 19.558 254.381 17.859 249.604C16.16 244.827 16.401 240.211 18.9328 235.733C19.8777 234.061 20.5574 232.242 21.4014 230.511C24.1684 224.836 24.325 218.999 22.6795 212.986C21.7675 209.653 20.6481 206.33 20.9802 202.78C21.2327 200.082 21.9894 197.49 22.655 194.879C22.8743 194.019 23.1412 193.166 23.1075 192.253C22.9903 192.262 22.8774 192.236 22.8361 192.279C18.6783 196.606 15.4951 201.438 14.9774 207.625C14.9036 208.506 14.8587 209.381 15.5787 210.151C16.0818 210.689 15.5781 211.501 15.7766 212.223C15.8992 212.669 15.1796 212.436 14.9157 212.2C10.7427 208.461 9.6349 207.406 10.5217 201.347C11.3996 195.349 14.0889 190.028 16.2931 184.519C19.2682 177.081 22.1274 169.607 23.6895 161.715C24.6748 156.737 25.0224 151.692 25.0465 146.627C25.076 140.445 25.0053 134.261 25.0703 128.079C25.1333 122.093 26.3745 116.264 27.642 110.445C30.0574 99.3583 33.9623 88.8253 39.7598 79.0674C45.4684 69.4589 53.6974 62.6123 63.9726 58.3488C69.3124 56.1333 74.9973 56.0149 80.6757 56.8585C83.8615 57.3318 87.0462 57.7758 90.2704 57.646C94.5135 57.4753 98.4044 58.5352 102.026 60.7192C102.788 61.1787 103.56 61.6503 104.476 61.8078C105.15 61.9236 105.561 61.8173 105.55 61.022C105.519 58.577 105.501 56.1318 105.485 53.6866C105.482 53.2387 105.242 52.951 104.873 52.7847C102.959 51.9218 101.894 50.249 100.866 48.5603C99.8858 46.9513 98.9535 45.312 98.0487 43.6593C97.8659 43.3254 97.5712 42.8813 97.9632 42.4699C98.381 42.0313 98.8371 42.2642 99.2635 42.4584C100.066 42.8241 100.858 43.2138 101.969 43.7432C101.65 43.0281 101.475 42.6207 101.288 42.2185C100.856 41.2871 100.346 40.3845 99.9998 39.4224C99.3751 37.6849 100.087 36.8548 101.913 37.1317C102.842 37.2725 103.752 37.5407 104.683 37.6569C106.166 37.8421 106.664 37.525 106.931 36.052C107.282 34.1176 107.538 32.1634 107.761 30.2093C107.926 28.7548 108.647 27.8071 110.045 27.4471C111.444 27.087 112.023 26.1572 112.304 24.8107C112.715 22.8464 112.944 20.8358 113.657 18.9404C114.32 17.1787 115.226 16.5701 116.9 17.3559C119.501 18.5764 121.45 17.8591 123.4 16.0403C126.269 13.3648 130.014 12.3442 133.568 10.9948C138.793 9.01128 144.186 7.37361 149.738 7.1059C158.882 6.66519 166.994 9.44784 172.74 16.9952C176.077 21.3788 179.304 25.9152 181.045 31.2658C182.039 34.3201 182.895 37.4175 183.498 40.5708C184.033 43.371 184.971 46 186.214 48.5596C189.056 54.4082 191.084 60.5218 191.921 66.9997C192.096 68.3574 192.318 69.709 192.519 71.0633C192.89 73.5609 196.436 77.4404 198.851 78.0083C199.359 78.1277 199.796 77.9695 200.186 77.7009C200.643 77.3855 201.043 76.9868 201.491 76.6564C203.851 74.917 206.253 74.1849 209.104 75.7309C212.337 77.4834 214.952 79.71 216.474 83.142C217.429 85.2944 218.4 87.4378 219.223 89.6436C219.486 90.3479 219.864 91.0766 219.316 91.8504C219.219 91.9863 219.25 92.3005 219.341 92.4671C220.158 93.96 220.421 95.6709 221.36 97.1352C224.317 101.744 227.951 105.643 232.467 108.788C239.661 113.798 245.851 119.925 251.465 126.629C256.381 132.498 259.364 139.258 260.114 146.894C260.585 151.683 260.258 156.502 260.15 161.307C260.033 166.454 259.656 171.602 260.181 176.744C260.343 178.324 260.813 179.854 261.39 181.327C263.241 186.055 263.164 190.782 261.508 195.528C257.023 208.384 253.597 221.564 249.607 234.571C246.27 245.453 243.03 256.365 239.761 267.268C239.492 268.164 239.328 269.091 239.115 270.004H139.954C140.224 269.239 140.57 268.492 140.755 267.707C143.254 257.068 144.53 246.254 144.545 235.352C144.561 223.38 144.063 211.409 143.469 199.447C143.127 192.573 143.289 185.72 144.52 178.931C145.944 171.087 148.055 163.417 150.515 155.84C152.699 149.114 154.995 142.438 158.622 136.307C160.73 132.744 162.116 128.879 163.215 124.899C163.592 123.534 163.698 122.221 163.15 120.878C162.601 119.535 162.859 118.287 163.673 117.104C164.096 116.49 164.724 115.994 164.927 115.199C164.06 114.922 163.384 115.103 162.718 115.624C160.927 117.025 159.155 118.459 157.279 119.737C154.376 121.715 152.863 121.488 150.4 119.005C148.416 117.006 146.811 114.752 145.612 112.202C145.342 111.628 145.1 110.928 144.391 110.796C143.136 110.563 142.649 109.686 142.307 108.615C142.073 107.882 141.806 107.159 141.549 106.432C141.214 105.485 140.482 104.806 139.552 104.879C137.877 105.011 136.711 104.139 135.467 103.301C134.579 102.704 133.66 102.151 132.733 101.617C131.554 100.938 130.409 101.023 129.435 101.995C127.86 103.567 126.156 104.422 123.924 103.115C125.029 104.287 126.084 105.35 126.816 106.68C127.895 108.641 127.38 110.378 125.376 111.383C124.486 111.83 123.674 112.342 122.979 113.076C122.027 114.083 121.851 115.125 122.524 116.349C123.06 117.324 123.504 118.349 124.036 119.327C124.595 120.357 124.561 121.306 123.738 122.156C122.953 122.968 123.085 123.473 124.097 123.985C125.491 124.692 125.628 125.213 125.048 126.69C124.767 127.407 124.482 128.127 124.136 128.815C123.315 130.449 123.159 132.068 124.05 133.734C124.442 134.466 124.59 135.274 124.465 136.105C124.101 138.539 120.902 141.621 118.435 142.012C116.18 142.37 113.901 142.085 111.636 142.397C108.76 142.792 106.781 144.117 105.877 146.953C105.302 148.756 104.888 150.59 104.65 152.459C104.228 155.775 103.297 158.882 101.372 161.676C99.4369 164.484 98.1889 167.644 97.0731 170.841C96.2113 173.311 96.4525 175.722 97.7875 178.024C99.1188 180.319 100.891 182.203 102.849 183.971C108.344 188.931 113.009 194.437 115.616 201.583C119.189 211.379 124.181 220.444 130.642 228.678C135.009 234.244 138.608 240.234 140.568 247.126C141.424 250.14 142.157 253.085 141.05 256.179C140.355 258.122 139.433 259.956 138.474 261.775C137.094 264.392 135.777 267.033 135.317 270.003C101.577 270.003 67.8364 270.003 34.0959 270.003L34.096 270.004ZM121.917 101.202C121.486 99.5253 121.915 97.8806 121.926 96.2341C121.955 91.6506 120.341 87.4334 118.845 83.207C118.118 81.1544 116.733 80.6273 114.527 81.3566C115.239 82.91 115.951 84.4622 116.664 86.0141C117.354 87.5188 117.798 89.0911 117.527 90.7474C116.804 95.1655 119.402 98.1477 121.917 101.202L121.917 101.202ZM35.7006 211.095C35.3045 212.454 35.3577 213.819 35.471 215.186C35.783 213.831 36.1266 212.481 35.7006 211.095ZM52.3924 269.715C52.791 269.795 53.2074 270.085 53.4432 269.525C53.5172 269.349 53.3677 269.073 53.1536 269.03C52.6654 268.931 52.5303 269.303 52.3924 269.715Z" fill="black"/>
</g>
<defs>
<clipPath id="clip0_2_334">
<rect width="273" height="270" fill="white"/>
</clipPath>
</defs>
</svg>
